<?xml version="1.0" encoding="utf-8"?>
<!-- Generator: Adobe Illustrator 16.0.4, SVG Export Plug-In . SVG Version: 6.00 Build 0)  -->
<!DOCTYPE svg PUBLIC "-//W3C//DTD SVG 1.1//EN" "http://www.w3.org/Graphics/SVG/1.1/DTD/svg11.dtd">
<svg version="1.1" id="Calque_1" xmlns="http://www.w3.org/2000/svg" xmlns:xlink="http://www.w3.org/1999/xlink" x="0px" y="0px"
	 width="81px" height="81px" viewBox="0 0 81 81" enable-background="new 0 0 81 81" xml:space="preserve">
<g id="Fb">
	<path fill="#FFFFFF" d="M40.5,81C18.168,81,0,62.832,0,40.5C0,18.168,18.168,0,40.5,0C62.832,0,81,18.168,81,40.5
		C81,62.832,62.832,81,40.5,81z M40.5,1C18.72,1,1,18.72,1,40.5C1,62.281,18.72,80,40.5,80C62.281,80,80,62.281,80,40.5
		C80,18.72,62.281,1,40.5,1z"/>
	<path fill="#FFFFFF" d="M49.436,42.203l0.891-6.894h-6.824v-4.398c0-1.996,0.555-3.354,3.418-3.354l3.645-0.004v-6.16
		c-0.627-0.088-2.791-0.275-5.314-0.275c-5.262,0-8.862,3.217-8.862,9.109v5.082h-5.953v6.894h5.953v17.682h7.114V42.203H49.436z"/>
</g>
</svg>
