<?xml version="1.0" encoding="utf-8"?>
<!-- Generator: Adobe Illustrator 23.0.2, SVG Export Plug-In . SVG Version: 6.00 Build 0)  -->
<svg version="1.1" id="Calque_1" xmlns="http://www.w3.org/2000/svg" xmlns:xlink="http://www.w3.org/1999/xlink" x="0px" y="0px"
	 width="81px" height="81px" viewBox="0 0 81 81" style="enable-background:new 0 0 81 81;" xml:space="preserve">
<g id="Lk">
	<path fill="#FFFFFF" d="M40.5,81C18.17,81,0,62.83,0,40.5S18.17,0,40.5,0S81,18.17,81,40.5S62.83,81,40.5,81z M40.5,1
		C18.72,1,1,18.72,1,40.5C1,62.28,18.72,80,40.5,80S80,62.28,80,40.5C80,18.72,62.28,1,40.5,1z"/>
	<path fill="#FFFFFF" d="M57.64,40.77c0,3.41-0.04,5.77-0.11,7.08c-0.15,3.1-1.07,5.49-2.77,7.19s-4.09,2.62-7.19,2.77
		c-1.31,0.08-3.67,0.11-7.08,0.11c-3.41,0-5.77-0.04-7.08-0.11c-3.1-0.15-5.49-1.07-7.19-2.77c-1.7-1.7-2.62-4.09-2.77-7.19
		c-0.07-1.31-0.11-3.67-0.11-7.08c0-3.41,0.04-5.77,0.11-7.08c0.15-3.1,1.07-5.49,2.77-7.19c1.7-1.7,4.09-2.62,7.19-2.77
		c1.31-0.07,3.67-0.11,7.08-0.11c3.41,0,5.77,0.04,7.08,0.11c3.09,0.15,5.49,1.07,7.19,2.77s2.62,4.09,2.77,7.19
		C57.61,35,57.64,37.36,57.64,40.77z M42.21,26.7c-1.03,0.01-1.6,0.01-1.71,0.01c-0.1,0-0.67,0-1.71-0.01
		c-1.04-0.01-1.82-0.01-2.36,0c-0.54,0.01-1.25,0.03-2.15,0.07c-0.9,0.04-1.67,0.11-2.3,0.22s-1.16,0.25-1.6,0.41
		c-0.74,0.3-1.4,0.73-1.96,1.29c-0.57,0.57-1,1.22-1.29,1.96c-0.16,0.43-0.3,0.96-0.41,1.6c-0.11,0.63-0.19,1.4-0.22,2.3
		s-0.06,1.62-0.07,2.15c-0.01,0.54-0.01,1.32,0,2.36c0.01,1.03,0.01,1.6,0.01,1.71c0,0.1,0,0.67-0.01,1.71
		c-0.01,1.03-0.01,1.82,0,2.35c0.01,0.54,0.03,1.25,0.07,2.15s0.11,1.67,0.22,2.3c0.11,0.63,0.25,1.17,0.41,1.6
		c0.3,0.74,0.73,1.4,1.29,1.96c0.57,0.57,1.22,1,1.96,1.29c0.43,0.16,0.96,0.3,1.6,0.41c0.63,0.11,1.4,0.19,2.3,0.22
		c0.9,0.04,1.62,0.06,2.15,0.07c0.54,0.01,1.32,0.01,2.36,0c1.03-0.01,1.6-0.01,1.71-0.01c0.1,0,0.67,0,1.71,0.01s1.82,0.01,2.35,0
		c0.54-0.01,1.25-0.03,2.15-0.07s1.67-0.11,2.3-0.22c0.63-0.11,1.16-0.25,1.6-0.41c0.74-0.3,1.4-0.73,1.96-1.29s1-1.22,1.29-1.96
		c0.16-0.43,0.3-0.96,0.41-1.6c0.11-0.63,0.19-1.4,0.22-2.3s0.06-1.62,0.07-2.15c0.01-0.54,0.01-1.32,0-2.35
		c-0.01-1.03-0.01-1.6-0.01-1.71c0-0.1,0-0.67,0.01-1.71c0.01-1.03,0.01-1.82,0-2.36c-0.01-0.54-0.03-1.25-0.07-2.15
		s-0.11-1.67-0.22-2.3c-0.11-0.63-0.25-1.16-0.41-1.6c-0.3-0.74-0.73-1.4-1.29-1.96s-1.22-1-1.96-1.29c-0.43-0.16-0.96-0.3-1.6-0.41
		s-1.4-0.19-2.3-0.22s-1.62-0.06-2.15-0.07C44.03,26.69,43.24,26.69,42.21,26.7z M46.73,34.54c1.71,1.71,2.57,3.79,2.57,6.23
		c0,2.44-0.86,4.52-2.57,6.23c-1.71,1.71-3.79,2.57-6.23,2.57s-4.52-0.86-6.23-2.57c-1.71-1.71-2.57-3.79-2.57-6.23
		c0-2.44,0.86-4.52,2.57-6.23c1.71-1.71,3.79-2.57,6.23-2.57S45.02,32.83,46.73,34.54z M44.54,44.81c1.12-1.12,1.67-2.46,1.67-4.04
		c0-1.58-0.56-2.92-1.67-4.04c-1.12-1.12-2.46-1.67-4.04-1.67s-2.92,0.56-4.04,1.67s-1.67,2.46-1.67,4.04
		c0,1.58,0.56,2.92,1.67,4.04c1.12,1.12,2.46,1.67,4.04,1.67S43.42,45.93,44.54,44.81z M51.1,30.17c0.4,0.4,0.6,0.89,0.6,1.45
		s-0.2,1.05-0.6,1.45c-0.4,0.4-0.88,0.6-1.45,0.6c-0.57,0-1.05-0.2-1.45-0.6c-0.4-0.4-0.6-0.89-0.6-1.45s0.2-1.05,0.6-1.45
		c0.4-0.4,0.88-0.6,1.45-0.6C50.22,29.57,50.7,29.77,51.1,30.17z"/>
</g>
</svg>
