<?xml version="1.0" encoding="utf-8"?>
<!-- Generator: Adobe Illustrator 16.0.4, SVG Export Plug-In . SVG Version: 6.00 Build 0)  -->
<!DOCTYPE svg PUBLIC "-//W3C//DTD SVG 1.1//EN" "http://www.w3.org/Graphics/SVG/1.1/DTD/svg11.dtd">
<svg version="1.1" id="Calque_1" xmlns="http://www.w3.org/2000/svg" xmlns:xlink="http://www.w3.org/1999/xlink" x="0px" y="0px"
	 width="81px" height="81px" viewBox="0 0 81 81" enable-background="new 0 0 81 81" xml:space="preserve">
<g id="Lk">
	<path fill="#FFFFFF" d="M40.5,81C18.168,81,0,62.832,0,40.5C0,18.168,18.168,0,40.5,0S81,18.168,81,40.5
		C81,62.832,62.832,81,40.5,81z M40.5,1C18.72,1,1,18.72,1,40.5C1,62.281,18.72,80,40.5,80S80,62.281,80,40.5
		C80,18.72,62.28,1,40.5,1z"/>
	<g>
		<g>
			<path fill="#FFFFFF" d="M24.646,35.004h6.803v21.851h-6.803V35.004z M28.047,24.143c2.172,0,3.939,1.768,3.939,3.936
				c0,2.174-1.768,3.941-3.939,3.941c-2.18,0-3.941-1.768-3.941-3.941C24.105,25.911,25.867,24.143,28.047,24.143"/>
			<path fill="#FFFFFF" d="M35.707,35.004h6.516v2.99h0.094c0.904-1.721,3.123-3.535,6.432-3.535c6.873,0,8.146,4.527,8.146,10.41
				v11.986h-6.787V46.23c0-2.533-0.053-5.792-3.537-5.792c-3.535,0-4.072,2.759-4.072,5.607v10.811h-6.791V35.004z"/>
		</g>
	</g>
</g>
</svg>
